<?xml version="1.0" encoding="UTF-8"?><svg id="Layer_1" xmlns="http://www.w3.org/2000/svg" viewBox="0 0 360 360"><path d="M198.37,183.71h0s-.04-.01-.04-.01c-.75-.21-1.52-.42-2.3-.63,0,.03,0,.05,0,.08l-9.88-2.38c3.55,.73,6.84,1.49,9.88,2.3-.04-1.13-.06-2.29-.06-3.48,0-24.49,11-48.15,39.66-48.15,16.15,0,28.48,7.84,32.97,25.16l15.66-1.83c-4.83-23.33-23.15-36.65-48.63-36.65-15.2,0-31.6,6.52-44.85,19.87-7.86,7.91-16.21,21.69-18.21,28.45-1.99,6.72-.14,11.81,7.42,13.14,2.13,.38,4.17,.77,6.14,1.17l-3.96,16.24-5.07,21.04h-.15l-4.77-20.12-19.52-72.86h-16.6l-20.28,73.16-4.92,19.82h-.16l-4.61-21.04-16.91-71.94h-14.91l28.58,109.9h15.07l21.82-78.7,4.15-15.99h.16l4.3,15.99,21.51,78.7h14.61l12.13-44.7c3.14,25.4,17.63,35.38,31.81,37.72,4.61-13.1,11.8-32.42-30.03-44.27Z"/><path d="M270.09,196.24c-3.17,19.99-15,32.31-34.65,32.31-2.3,0-4.66-.18-7.04-.57-2.88,8.16-4.75,13.91,6.88,13.91,27.82,0,45.64-15.65,50.47-43.64l-15.65-1.99Z"/></svg>