<?xml version="1.0" encoding="utf-8"?>
<!-- Generator: Adobe Illustrator 27.2.0, SVG Export Plug-In . SVG Version: 6.00 Build 0)  -->
<svg version="1.1" id="Layer_1" xmlns="http://www.w3.org/2000/svg" xmlns:xlink="http://www.w3.org/1999/xlink" x="0px" y="0px"
	 viewBox="0 0 612 350" style="enable-background:new 0 0 612 350;" xml:space="preserve">
<style type="text/css">
	.st0{fill:#010202;}
</style>
<path class="st0" d="M535.3,212.4c-2.1,13.2-5.8,25-11.2,35.1c-7.5,14.1-18.2,24.8-31.9,31.5c-10.4,5-22.6,7.7-36.4,7.7
	c-12,0-24.8-2.1-36.9-7.3c-10.9-4.7-21.2-12-29.9-22.5c-6.1-7.4-11.3-16.4-15.3-27.3c-3.6-9.8-6.3-21.2-7.6-34.3
	c-0.7-6.6-1-13.6-1-21.1c0-7.8,0.5-15.6,1.5-23.1c1.1-8.6,3-17,5.5-25c3.6-11.1,8.6-21.4,15.2-30.2c3.7-4.9,7.9-9.5,12.6-13.4
	c4.7-4,10-7.4,15.8-10.2c5.6-2.7,11.8-4.9,18.5-6.3s14-2.2,21.8-2.2c13.9,0,26.6,2.5,37.6,7.8c11,5.3,20.2,13.2,27.2,24.2
	c4.7,7.3,8.4,15.9,11,25.8l17.2-2l18.8-2.2C564,98.6,556.4,82.8,545.7,70c-6.6-7.8-14.3-14.5-23.1-19.9
	c-9.6-5.9-20.3-10.3-32.1-13.2c-5.3-1.3-10.9-2.3-16.6-2.9c-5.7-0.7-11.7-1-17.8-1c-10.6,0-20.7,1.1-30.3,3.3
	c-5.4,1.2-10.7,2.8-15.8,4.7c-10.3,3.8-19.7,9-28.3,15.3c-6.8,5-13,10.7-18.6,17c-4.4,5-8.4,10.3-12,16c-3.9,6.1-7.3,12.6-10.2,19.5
	c-2.8,6.6-5.2,13.6-7.1,20.9c-0.7,2-1.3,4-1.9,6l-6.1,22.8l-5.3,19.6L310,217.4l-6.1,25.2l-6.6,27.2H297l-5.6-23.8l-6.2-26.4
	l-7.4-27.5l-7.2-26.9l-7-26.1l-6.5-24.2l-7.9-29.5L243,62.4l-6.5-24.1h-25.9h-15.4L188.7,62l-8.5,30.7l-6.8,24.6l-9,32.3l-11,39.8
	l-8.6,30.9l-6.1,24.7l-6.1,24.7h-0.4l-5.2-23.5l-6.3-28.9l-9.7-41.3l-8.4-35.5l-4.9-20.7l-7-29.8L83.9,61l-5.3-22.6H41.4l6.4,24.4
	L53.6,85l9.1,34.9l7.4,28.6l6.4,24.5l7.8,30l7.7,29.4l6.7,25.9l7.5,28.8l6.4,24.7H129h21.1l7.8-28.2l9.5-34.4l10.8-38.8l12.5-44.9
	l6.5-23.5l7.2-26.1l10.3-39.8h0.4l10.7,39.8l7.8,28.4l11.9,43.6l9.3,34l6.8,25l11.4,41.7l6.4,23.3h17.4h19l5.4-18.9l5-17.4l5.6-19.5
	l5.8-20c3.8,11.3,8.8,21.4,14.8,30.3c5.3,7.9,11.4,15,18.1,21.1c8.3,7.5,17.7,13.6,27.9,18.2c7.2,3.3,14.9,5.9,23,7.8
	c10.6,2.5,21.9,3.7,33.8,3.7c8.4,0,16.5-0.6,24.1-1.9c13.4-2.2,25.5-6.2,36.3-12.1c7.5-4.1,14.3-9,20.4-14.8
	c5.3-5,10-10.6,14.2-16.8c3-4.4,5.7-9.1,8.1-14c2.8-5.6,5.2-11.6,7.2-17.9c2.3-7.1,4.2-14.7,5.5-22.8l-19.6-2.5L535.3,212.4z"/>
</svg>
