<?xml version="1.0" ?>
<svg version="1.1" x="0px" xmlns="http://www.w3.org/2000/svg" y="0px">
  <polyline fill="none" fill-opacity="1.0" points="230.938489437,21.0567378998 230.530138016,23.4292054176 230.059704781,25.7898175716 229.523904324,28.1359243393 228.919637203,30.4645192623 228.243494034,32.7723324299 227.492096424,35.0555825233 226.660330296,37.3147344589 225.746119022,39.5409393311 224.746456146,41.7284786701 223.658490181,43.871742487 " stroke-opacity="1.0"/>
  <polyline fill="none" fill-opacity="1.0" points="223.658490181,43.871742487 222.450048923,46.026288271 221.144161224,48.1226885319 219.739494324,50.1539075375 218.235645294,52.1125531197 216.633141041,53.9912176132 214.93350029,55.7824313641 213.13945055,57.4791121483 211.254866123,59.0747201443 209.284644127,60.5634593964 207.234704494,61.940587759 205.111896992,63.2024788857 202.923505306,64.3467462063 " stroke-opacity="1.0"/>
  <polyline fill="none" fill-opacity="1.0" points="202.923505306,64.3467462063 200.700399876,65.3438210487 198.427052498,66.2242639065 196.110560894,66.9893145561 193.759510517,67.6406311989 191.383726597,68.1803679466 188.984913826,68.6131429672 186.568620205,68.9426445961 184.139959812,69.1727781296 181.703488827,69.3077278137 179.263484478,69.3517553806 " stroke-opacity="1.0"/>
  <polyline fill="none" fill-opacity="1.0" points="179.263484478,69.3517553806 176.804139614,69.3063640594 174.346747398,69.1694307327 171.895368099,68.9396381378 169.453999996,68.6154675484 167.028779984,68.1957101822 164.622807503,67.6786768436 162.239739895,67.0626008511 159.884536266,66.3460099697 157.562372684,65.5276954174 155.278487206,64.6067428589 " stroke-opacity="1.0"/>
  <polyline fill="none" fill-opacity="1.0" points="155.278487206,64.6067428589 153.048903942,63.582470417 150.86959362,62.453250885 148.74588728,61.2206339836 146.682929993,59.8867428303 144.689276218,58.4571874142 142.765933275,56.9333004951 140.916651487,55.3190648556 139.144762754,53.6189901829 137.453010082,51.8380820751 135.843501091,49.9817335606 " stroke-opacity="1.0"/>
  <polyline fill="none" fill-opacity="1.0" points="135.843501091,49.9817335606 134.268132448,47.9736363888 132.788211107,45.8907186985 131.40599966,43.7425577641 130.120413303,41.535615921 128.929235935,39.2753326893 127.830747366,36.9689762592 126.822359562,34.6230399609 125.898509026,32.2367489338 " stroke-opacity="1.0"/>
  <polyline fill="none" fill-opacity="1.0" points="125.898509026,32.2367489338 125.062093735,29.8386180401 124.301041365,27.4081909657 123.616762161,24.9605619907 123.004761934,22.4914383888 122.462623119,20.0019514561 121.990376711,17.506172657 121.583559513,14.9957489967 121.240249872,12.473423481 120.958510637,9.94174540043 " stroke-opacity="1.0"/>
  <polyline fill="none" fill-opacity="1.0" points="120.958510637,9.94174540043 120.742990971,7.66298949718 120.576086044,5.37992537022 120.45334816,3.09390127659 120.370438099,0.805924534798 120.323404074,-1.4832919836 120.308511257,-3.77325236797 " stroke-opacity="1.0"/>
  <polyline fill="none" fill-opacity="1.0" points="120.308511257,-3.77325236797 120.335073471,-6.28266870975 120.414899588,-8.79096150398 120.548593998,-11.2969839573 120.736978054,-13.7994652987 120.981384516,-16.2970650196 121.283502579,-18.7882488966 " stroke-opacity="1.0"/>
  <polyline fill="none" fill-opacity="1.0" points="121.283502579,-18.7882488966 121.616661549,-21.1450487375 122.011111975,-23.4921473265 122.465474606,-25.8280646801 122.978587151,-28.1521809101 123.549209833,-30.4629540443 124.176180363,-32.7587413788 124.858506918,-35.0382566452 " stroke-opacity="1.0"/>
  <polyline fill="none" fill-opacity="1.0" points="124.858506918,-35.0382566452 125.649964809,-37.3608231544 126.511811018,-39.6573543549 127.446494102,-41.924161911 128.457562923,-44.1593939066 129.547078609,-46.3571536541 130.717241764,-48.5118001699 131.971616745,-50.6200635433 133.311551809,-52.674485743 134.738503695,-54.6682518721 " stroke-opacity="1.0"/>
  <polyline fill="none" fill-opacity="1.0" points="134.738503695,-54.6682518721 136.21923089,-56.5522319078 137.775537968,-58.3744478226 139.410524368,-60.126337409 141.127351522,-61.7981141806 142.928498983,-63.378252089 " stroke-opacity="1.0"/>
  <polyline fill="none" fill-opacity="1.0" points="142.928498983,-63.378252089 144.838080406,-64.9145251513 146.828324795,-66.3456225395 148.890197277,-67.6708352566 151.015949249,-68.8911163807 153.198513985,-70.0082480907 " stroke-opacity="1.0"/>
  <polyline fill="none" fill-opacity="1.0" points="153.198513985,-70.0082480907 155.517423153,-71.058369875 157.885985374,-71.9962221384 160.295770168,-72.8176903725 162.743461132,-73.5208761692 165.223510265,-74.1032534838 " stroke-opacity="1.0"/>
  <polyline fill="none" fill-opacity="1.0" points="165.223510265,-74.1032534838 167.558846474,-74.5467913151 169.909029007,-74.9061173201 172.270493507,-75.1828432083 174.640264511,-75.3785574436 177.015459538,-75.4948407412 179.39350605,-75.5332505703 " stroke-opacity="1.0"/>
  <polyline fill="none" fill-opacity="1.0" points="179.39350605,-75.5332505703 181.911833286,-75.4903155565 184.426627159,-75.3580778837 186.933982372,-75.1313149929 189.42943573,-74.8047268391 191.907935143,-74.3729746342 194.36393261,-73.8308048248 196.794855595,-73.1721502542 199.188678265,-72.3936092854 201.537621021,-71.491547823 203.833501339,-70.4632538557 " stroke-opacity="1.0"/>
  <polyline fill="none" fill-opacity="1.0" points="203.833501339,-70.4632538557 205.966351032,-69.3660128117 208.036530018,-68.1564092636 210.036196709,-66.8342030048 211.957850456,-65.4005485773 213.793897629,-63.8587856293 215.537178516,-62.2143033147 217.183539867,-60.4723358154 218.729541302,-58.6396631598 220.173137188,-56.7239060998 221.513490677,-54.7332510352 " stroke-opacity="1.0"/>
  <polyline fill="none" fill-opacity="1.0" points="221.513490677,-54.7332510352 222.705225945,-52.7823463082 223.807418346,-50.7765388489 224.82047081,-48.7254834175 225.74785471,-46.6337710619 226.592359543,-44.5073992014 227.357580662,-42.3505830765 228.046276569,-40.1697462797 228.663499355,-37.9632538557 " stroke-opacity="1.0"/>
  <polyline fill="none" fill-opacity="1.0" points="228.663499355,-37.9632538557 230.899498463,-38.2232505083 233.13549757,-38.4832549095 235.371496677,-38.7432515621 237.607495785,-39.0032559633 239.843494892,-39.2632526159 " stroke-opacity="1.0"/>
  <polyline fill="none" fill-opacity="1.0" points="239.843494892,-39.2632526159 242.28749752,-39.549253583 244.731500149,-39.83525455 247.175502777,-40.1212477684 249.619505405,-40.4072487354 252.063508034,-40.6932497025 " stroke-opacity="1.0"/>
  <polyline fill="none" fill-opacity="1.0" points="252.063508034,-40.6932497025 251.540477276,-43.0951929092 250.944826603,-45.477167964 250.274944305,-47.8371214867 249.528970718,-50.1726591587 248.705480099,-52.4811464548 247.802116871,-54.7621804476 246.817982197,-57.0115613937 245.753695965,-59.2229315639 244.608948231,-61.3929474354 243.38398695,-63.5181725025 242.079246044,-65.5951547623 240.695779324,-67.6205003262 239.234888554,-69.590908289 237.698495388,-71.5032482147 " stroke-opacity="1.0"/>
  <polyline fill="none" fill-opacity="1.0" points="237.698495388,-71.5032482147 236.055481434,-73.3715605736 234.341986179,-75.1746451855 232.558970451,-76.9093871117 230.708479881,-78.5719507933 228.793056011,-80.1587951183 226.814682484,-81.6674405336 224.777698517,-83.0942451954 222.683498859,-84.4382560253 " stroke-opacity="1.0"/>
  <polyline fill="none" fill-opacity="1.0" points="222.683498859,-84.4382560253 220.515563488,-85.7151561975 218.301074505,-86.9107735157 216.043844223,-88.0244880915 213.749203682,-89.0557575226 211.418516636,-90.00618577 209.056556225,-90.8761912584 206.668498516,-91.6665875912 204.254808426,-92.3800170422 201.818492413,-93.0182540417 " stroke-opacity="1.0"/>
  <polyline fill="none" fill-opacity="1.0" points="201.818492413,-93.0182540417 199.683008194,-93.5113441944 197.53401041,-93.9468234777 195.374567509,-94.3243587017 193.205609322,-94.6435159445 191.028499603,-94.9032491446 " stroke-opacity="1.0"/>
  <polyline fill="none" fill-opacity="1.0" points="191.028499603,-94.9032491446 188.723537922,-95.1511347294 186.411261559,-95.3343349695 184.095761776,-95.458932519 181.77778244,-95.5303668976 179.458501339,-95.5532562733 " stroke-opacity="1.0"/>
  <polyline fill="none" fill-opacity="1.0" points="179.458501339,-95.5532562733 176.975507736,-95.5219441652 174.496791363,-95.4267758131 172.019531727,-95.2655738592 169.549338818,-95.0366413593 167.085158825,-94.7378861904 164.632105827,-94.3679755926 162.189745903,-93.925011158 159.763503075,-93.4082567692 " stroke-opacity="1.0"/>
  <polyline fill="none" fill-opacity="1.0" points="159.763503075,-93.4082567692 157.676990032,-92.9123926163 155.60557127,-92.3569184542 153.55045557,-91.7439883947 151.512634754,-91.0754930973 149.493503571,-90.3532534838 " stroke-opacity="1.0"/>
  <polyline fill="none" fill-opacity="1.0" points="149.493503571,-90.3532534838 147.319090366,-89.5109724998 145.173749924,-88.5995197296 143.059310913,-87.6201117039 140.97612977,-86.5735077858 138.927197456,-85.4620945454 136.914079189,-84.2878168821 134.937286377,-83.0524027348 132.998539209,-81.7584556341 131.098519564,-80.4082536697 " stroke-opacity="1.0"/>
  <polyline fill="none" fill-opacity="1.0" points="131.098519564,-80.4082536697 129.231601954,-78.99048388 127.409424782,-77.5159555674 125.633212328,-75.9864509106 123.904064894,-74.4038528204 122.223051786,-72.7702534199 120.590994358,-71.0876983404 119.008512497,-69.3582487106 " stroke-opacity="1.0"/>
  <polyline fill="none" fill-opacity="1.0" points="119.008512497,-69.3582487106 117.596344948,-67.7120965719 116.226810217,-66.0303008556 114.901783466,-64.313248992 113.622829914,-62.5615996122 112.391359806,-60.7762399316 111.208504438,-58.9582508802 " stroke-opacity="1.0"/>
  <polyline fill="none" fill-opacity="1.0" points="111.208504438,-58.9582508802 109.952765703,-56.9284459949 108.757218122,-54.8625946045 107.622140646,-52.7629089355 106.547502279,-50.6316322088 105.533101559,-48.4710037708 104.578504562,-46.2832474709 " stroke-opacity="1.0"/>
  <polyline fill="none" fill-opacity="1.0" points="104.578504562,-46.2832474709 103.67139101,-44.0686190128 102.819339037,-41.8321472406 102.022410631,-39.5754051208 101.280667782,-37.2998958826 100.594280958,-35.0070530176 99.9634981155,-32.6982557774 " stroke-opacity="1.0"/>
  <polyline fill="none" fill-opacity="1.0" points="99.9634981155,-32.6982557774 99.3238353729,-30.7553088665 98.7284946442,-28.7982517481 " stroke-opacity="1.0"/>
  <polyline fill="none" fill-opacity="1.0" points="98.7284946442,-28.7982517481 98.0676627159,-26.3282525539 97.4068307877,-23.8582533598 96.7459988594,-21.3882541656 96.0851669312,-18.9182549715 95.4243350029,-16.4482557774 94.7635030746,-13.9782565832 " stroke-opacity="1.0"/>
  <polyline fill="none" fill-opacity="1.0" points="94.7635030746,-13.9782565832 94.1893315315,-11.8549221754 93.6151754856,-9.7315877676 93.0410039425,-7.60825335979 92.4668323994,-5.48491895199 91.8926763535,-3.36158454418 91.3185048103,-1.23825013638 " stroke-opacity="1.0"/>
  <polyline fill="none" fill-opacity="1.0" points="91.3185048103,-1.23825013638 90.698043108,1.08402192593 90.0775969028,3.40629398823 89.4571352005,5.72856605053 88.8366889954,8.05083811283 88.216227293,10.3731024265 87.5957810879,12.6953744888 86.9753193855,15.0176465511 86.3548731804,17.3399186134 85.734411478,19.6621906757 85.1139652729,21.984462738 84.4935035706,24.3067348003 " stroke-opacity="1.0"/>
  <polyline fill="none" fill-opacity="1.0" points="84.4935035706,24.3067348003 83.9270806313,26.6467356682 83.3606421947,28.986736536 82.7942192554,31.3267374039 82.2277808189,33.6667537689 81.6613578796,36.0067546368 81.0949194431,38.3467555046 80.5284965038,40.6867563725 " stroke-opacity="1.0"/>
  <polyline fill="none" fill-opacity="1.0" points="80.5284965038,40.6867563725 79.9156439304,43.2124602795 79.3027758598,45.7381796837 78.6899232864,48.2638835907 78.077070713,50.7896029949 77.4642181396,53.3153069019 76.1874264479,55.9988808632 76.1410045624,58.3667302132 " stroke-opacity="1.0"/>
  <polyline fill="none" fill-opacity="1.0" points="76.1410045624,58.3667302132 76.1874264479,55.9988808632 75.0035095215,53.9467406273 74.4835007191,51.7367458344 73.9635074139,49.5267355442 73.4434986115,47.3167407513 72.9235053062,45.1067459583 72.4034965038,42.8967511654 " stroke-opacity="1.0"/>
  <polyline fill="none" fill-opacity="1.0" points="72.4034965038,42.8967511654 71.8277907372,40.4453253746 71.2520694733,37.9938995838 70.6763637066,35.542473793 70.1006424427,33.091032505 69.524936676,30.6396067142 68.9492154121,28.1881809235 68.3735096455,25.7367551327 " stroke-opacity="1.0"/>
  <polyline fill="none" fill-opacity="1.0" points="68.3735096455,25.7367551327 67.7722644806,23.5023832321 67.1710038185,21.2680113316 66.5697586536,19.0336239338 65.9685134888,16.7992520332 65.3672528267,14.5648801327 64.7660076618,12.3305004835 64.1647469997,10.0961208344 63.5635018349,7.86174893379 " stroke-opacity="1.0"/>
  <polyline fill="none" fill-opacity="1.0" points="63.5635018349,7.86174893379 62.8949368,5.36389350891 62.2263562679,2.86603033543 61.5577912331,0.368174910545 60.8892261982,-2.12968051434 60.2206611633,-4.62754368782 59.5520806313,-7.1253991127 58.8835155964,-9.62325453758 " stroke-opacity="1.0"/>
  <polyline fill="none" fill-opacity="1.0" points="58.8835155964,-9.62325453758 58.2335162163,-12.0468240976 57.5835168362,-14.4703936577 56.9335174561,-16.8939632177 56.2835025787,-19.3175405264 55.6335031986,-21.7411100864 54.9835038185,-24.1646796465 54.3335044384,-26.5882492065 " stroke-opacity="1.0"/>
  <polyline fill="none" fill-opacity="1.0" points="54.3335044384,-26.5882492065 53.7299346924,-28.8353908062 53.1263649464,-31.0825324059 52.5227952003,-33.3296740055 51.9192254543,-35.5768233538 51.3156557083,-37.8239649534 50.7120859623,-40.0711065531 50.1085162163,-42.3182481527 " stroke-opacity="1.0"/>
  <polyline fill="none" fill-opacity="1.0" points="50.1085162163,-42.3182481527 49.466637373,-44.7151237726 48.8247585297,-47.1119993925 48.1828796864,-49.5088750124 47.541000843,-51.9057506323 46.8991374969,-54.3026262522 46.2572586536,-56.6995018721 45.6153798103,-59.096377492 44.973500967,-61.4932531118 " stroke-opacity="1.0"/>
  <polyline fill="none" fill-opacity="1.0" points="44.973500967,-61.4932531118 44.3018364906,-63.9849174023 43.6301720142,-66.4765894413 42.9585075378,-68.9682537317 42.2868275642,-71.4599180222 41.6151630878,-73.9515900612 40.9434986115,-76.443246603 " stroke-opacity="1.0"/>
  <polyline fill="none" fill-opacity="1.0" points="40.9434986115,-76.443246603 40.3399288654,-78.6811053753 39.7363591194,-80.9189641476 39.1327893734,-83.1568229198 38.5292196274,-85.3946816921 37.9256498814,-87.6325404644 37.3220801353,-89.8703992367 36.7185103893,-92.1082502604 " stroke-opacity="1.0"/>
  <polyline fill="none" fill-opacity="1.0" points="36.7185103893,-92.1082502604 34.3135142326,-92.1082502604 31.9085025787,-92.1082502604 29.503506422,-92.1082502604 27.0985102654,-92.1082502604 24.6935141087,-92.1082502604 22.2885024548,-92.1082502604 19.8835062981,-92.1082502604 " stroke-opacity="1.0"/>
  <polyline fill="none" fill-opacity="1.0" points="19.8835062981,-92.1082502604 17.3810017109,-92.1082502604 14.8784971237,-92.1082502604 12.3760080338,-92.1082502604 9.87350344658,-92.1082502604 " stroke-opacity="1.0"/>
  <polyline fill="none" fill-opacity="1.0" points="9.87350344658,-92.1082502604 9.26993370056,-89.9075382948 8.66636395454,-87.7068185806 8.06279420853,-85.5061066151 7.45921671391,-83.3053946495 6.85564696789,-81.1046826839 6.25207722187,-78.9039629698 5.64850747585,-76.7032510042 " stroke-opacity="1.0"/>
  <polyline fill="none" fill-opacity="1.0" points="5.64850747585,-76.7032510042 4.95788216591,-74.2088747025 4.26725685596,-71.7145061493 3.57663154602,-69.2201298475 2.88600623608,-66.7257535458 2.19538092613,-64.231377244 1.50475561619,-61.7370048165 0.814130306244,-59.2426323891 0.1235049963,-56.7482560873 " stroke-opacity="1.0"/>
  <polyline fill="none" fill-opacity="1.0" points="0.1235049963,-56.7482560873 -0.507920980453,-54.4639715552 -1.13935470581,-52.1796831489 -1.77078068256,-49.8953986168 -2.40221440792,-47.6111102104 -3.03364038467,-45.326821804 -3.66507411003,-43.0425411463 -4.29650008678,-40.7582527399 " stroke-opacity="1.0"/>
  <polyline fill="none" fill-opacity="1.0" points="-4.29650008678,-40.7582527399 -4.9464994669,-38.4254735708 -5.59649884701,-36.0926944017 -6.24649822712,-33.7599152327 -6.89649760723,-31.4271360636 -7.54649698734,-29.0943646431 -8.19649636745,-26.761585474 -8.84649574757,-24.4288063049 -9.49649512768,-22.0960271358 -10.1464945078,-19.7632479668 " stroke-opacity="1.0"/>
  <polyline fill="none" fill-opacity="1.0" points="-10.1464945078,-19.7632479668 -10.7964938879,-17.4114304781 -11.446493268,-15.0596129894 -12.0964926481,-12.7077955008 -12.7464920282,-10.3559780121 -13.3964914083,-8.00416052341 -14.0464985371,-5.65234303474 -14.6964979172,-3.30052554607 -15.3464972973,-0.948708057404 -15.9964966774,1.40310943127 -16.6464960575,3.75492691994 -17.2964954376,6.10674440861 " stroke-opacity="1.0"/>
  <polyline fill="none" fill-opacity="1.0" points="-17.2964954376,6.10674440861 -17.9176080227,8.33841204643 -18.5387206078,10.5700796843 -19.1598254442,12.8017473221 -19.7809380293,15.0334227085 -20.4020506144,17.2650825977 -21.0231631994,19.496742487 -21.6442680359,21.7284178734 -22.265380621,23.9600932598 -22.886493206,26.191753149 " stroke-opacity="1.0"/>
  <polyline fill="none" fill-opacity="1.0" points="-22.886493206,26.191753149 -23.4529238939,28.4853243828 -24.0193468332,30.7788956165 -24.5857775211,33.0724668503 -25.152208209,35.366038084 -25.7186388969,37.6596093178 -26.2850618362,39.9531805515 -26.8514925241,42.2467517853 " stroke-opacity="1.0"/>
  <polyline fill="none" fill-opacity="1.0" points="-26.8514925241,42.2467517853 -27.4179232121,44.540323019 -27.9843461514,46.8338942528 -28.5507768393,49.1274654865 -29.1172075272,51.4210367203 -29.6836382151,53.714607954 -30.9047058225,56.0638916492 -30.9464940429,58.3017504215 " stroke-opacity="1.0"/>
  <polyline fill="none" fill-opacity="1.0" points="-30.9464940429,58.3017504215 -30.9047058225,56.0638916492 -32.0422124863,53.9374577999 -32.5250667334,51.7553114891 -33.0079209805,49.5731806755 -33.4907752275,47.3910343647 -33.9736372232,45.2088880539 -34.4564914703,43.0267417431 " stroke-opacity="1.0"/>
  <polyline fill="none" fill-opacity="1.0" points="-34.4564914703,43.0267417431 -34.9683642387,40.6786203384 -35.4802447557,38.3304989338 -35.9921175241,35.9823775291 -36.5039980412,33.6342561245 -37.0158708096,31.2861192226 -37.527743578,28.937997818 -38.039624095,26.5898764133 -38.5514968634,24.2417550087 " stroke-opacity="1.0"/>
  <polyline fill="none" fill-opacity="1.0" points="-38.5514968634,24.2417550087 -39.1246765852,21.8013012409 -39.697856307,19.3608474731 -40.2710437775,16.9203937054 -40.8442234993,14.4799399376 -41.4174032211,12.0394784212 -41.990582943,9.59902465343 -42.5637626648,7.15857088566 -43.1369423866,4.71811711788 -43.7101298571,2.2776556015 -44.2833095789,-0.162798166275 -44.8564893007,-2.60325193405 " stroke-opacity="1.0"/>
  <polyline fill="none" fill-opacity="1.0" points="-44.8564893007,-2.60325193405 -45.4024869204,-4.91075515747 -45.9484922886,-7.21825063229 -46.4944899082,-9.52575385571 -47.0404952765,-11.8332493305 -47.5864928961,-14.1407525539 -48.1324905157,-16.4482557774 -48.6784958839,-18.7557512522 -49.2244935036,-21.0632544756 -49.7704988718,-23.3707499504 -50.3164964914,-25.6782531738 " stroke-opacity="1.0"/>
  <polyline fill="none" fill-opacity="1.0" points="-50.3164964914,-25.6782531738 -50.8473300934,-27.9207533598 -51.3781636953,-30.1632535458 -51.9089972973,-32.4057537317 -52.4398270249,-34.6482539177 -52.9706606269,-36.8907541037 -53.5014942288,-39.1332542896 " stroke-opacity="1.0"/>
  <polyline fill="none" fill-opacity="1.0" points="-53.5014942288,-39.1332542896 -54.0702456236,-41.5545070171 -54.638993144,-43.975751996 -55.2077445388,-46.3970047235 -55.7764959335,-48.8182497025 -56.345243454,-51.23950243 -56.9139948487,-53.6607551575 -57.4827423692,-56.0820040107 -58.0514937639,-58.5032528639 " stroke-opacity="1.0"/>
  <polyline fill="none" fill-opacity="1.0" points="-58.0514937639,-58.5032528639 -58.6039924622,-60.8595025539 -59.1564911604,-63.215752244 -59.7089937329,-65.5720019341 -60.2614924312,-67.9282516241 -60.8139911294,-70.2845013142 -61.3664937019,-72.6407510042 -61.9189924002,-74.9970006943 -62.4714910984,-77.3532503843 " stroke-opacity="1.0"/>
  <polyline fill="none" fill-opacity="1.0" points="-62.4714910984,-77.3532503843 -63.0456587672,-79.8015844822 -63.619826436,-82.2499185801 -64.1939902306,-84.6982526779 -64.7681578994,-87.1465790272 -65.3423255682,-89.5949208736 -65.9164893627,-92.0432472229 " stroke-opacity="1.0"/>
  <polyline fill="none" fill-opacity="1.0" points="-65.9164893627,-92.0432472229 -68.3344876766,-92.0432472229 -70.7524937391,-92.0432472229 -73.170492053,-92.0432472229 -75.5884903669,-92.0432472229 -78.0064964294,-92.0432472229 -80.4244947433,-92.0432472229 -82.8424930573,-92.0432472229 -85.2604913712,-92.0432472229 -87.6784896851,-92.0432472229 -90.096487999,-92.0432472229 " stroke-opacity="1.0"/>
  <polyline fill="none" fill-opacity="1.0" points="-90.096487999,-92.0432472229 -89.5022010803,-89.7775399685 -88.9079141617,-87.5118249655 -88.3136349916,-85.2461099625 -87.719348073,-82.9803949594 -87.1250611544,-80.7146799564 -86.5307742357,-78.448972702 -85.9364950657,-76.1832499504 " stroke-opacity="1.0"/>
  <polyline fill="none" fill-opacity="1.0" points="-85.9364950657,-76.1832499504 -85.3081607819,-73.7782537937 -84.679826498,-71.373257637 -84.0514922142,-68.9682537317 -83.4231579304,-66.5632498264 -82.7948236465,-64.1582536697 -82.1664893627,-61.7532536387 " stroke-opacity="1.0"/>
  <polyline fill="none" fill-opacity="1.0" points="-82.1664893627,-61.7532536387 -81.5749919415,-59.4847530127 -80.9834945202,-57.2162523866 -80.3919970989,-54.9477517605 -79.8004919291,-52.6792511344 -79.2089945078,-50.4107505083 -78.6174893379,-48.1422537565 -78.0259919167,-45.8737492561 -77.4344944954,-43.6052525043 -76.8429970741,-41.3367557526 -76.2514919043,-39.0682512522 " stroke-opacity="1.0"/>
  <polyline fill="none" fill-opacity="1.0" points="-76.2514919043,-39.0682512522 -75.6502389908,-36.7444992065 -75.0489938259,-34.4207549095 -74.4477409124,-32.0970028639 -73.846487999,-29.7732508183 -73.2452428341,-27.4494987726 -72.6439899206,-25.125746727 -72.0427370071,-22.80200243 -71.4414918423,-20.4782503843 " stroke-opacity="1.0"/>
  <polyline fill="none" fill-opacity="1.0" points="-71.4414918423,-20.4782503843 -70.8472049236,-18.2032525539 -70.252918005,-15.9282469749 -69.6586310863,-13.6532491446 -69.0643441677,-11.3782513142 -68.4700572491,-9.10324573517 -67.875778079,-6.82824790478 -67.2814911604,-4.55325007439 " stroke-opacity="1.0"/>
  <polyline fill="none" fill-opacity="1.0" points="-67.2814911604,-4.55325007439 -66.6477406025,-2.11574852467 -66.0139900446,0.321753025055 -65.3802394867,2.75924682617 -64.7464889288,5.19674837589 -64.1127422452,7.63424992561 -63.4789916873,10.0717437267 -62.8452411294,12.5092452765 -62.2114905715,14.9467468262 " stroke-opacity="1.0"/>
  <polyline fill="none" fill-opacity="1.0" points="-62.2114905715,14.9467468262 -61.5858644247,17.3355019093 -60.9602421522,19.7242414951 -60.3346160054,22.1129965782 -59.7089898586,24.5017516613 -59.0833675861,26.8904912472 -58.4577414393,29.2792463303 -57.8321191669,31.6679859161 -57.2064930201,34.0567409992 " stroke-opacity="1.0"/>
  <polyline fill="none" fill-opacity="1.0" points="-57.2064930201,34.0567409992 -56.5843498707,36.4617371559 -55.9622067213,38.8667333126 -55.3400635719,41.2717294693 -54.7179242969,43.6767411232 -54.0957811475,46.0817372799 -53.4736379981,48.4867334366 -52.8514948487,50.8917295933 " stroke-opacity="1.0"/>
  <polyline fill="none" fill-opacity="1.0" points="-52.8514948487,50.8917295933 -52.2421213984,53.2317304611 -51.6327440739,55.571731329 -51.0233706236,57.9117321968 -50.4139971733,60.2517330647 -49.804623723,62.5917494297 -49.1952425241,64.9317502975 -48.5858690739,67.2717511654 -47.9764956236,69.6117520332 " stroke-opacity="1.0"/>
  <polyline fill="none" fill-opacity="1.0" points="-47.9764956236,69.6117520332 -47.3822087049,71.905323267 -46.7879217863,74.1988945007 -46.1936348677,76.4924657345 -45.5993556976,78.786021471 -45.005068779,81.0795927048 -44.4107818604,83.3731639385 -43.8164949417,85.6667351723 " stroke-opacity="1.0"/>
  <polyline fill="none" fill-opacity="1.0" points="-43.8164949417,85.6667351723 -41.6844975948,85.6667351723 -39.5524924994,85.6667351723 -37.4204951525,85.6667351723 -35.288490057,85.6667351723 -33.1564927101,85.6667351723 " stroke-opacity="1.0"/>
  <polyline fill="none" fill-opacity="1.0" points="-33.1564927101,85.6667351723 -30.870654583,85.6667351723 -28.5848242044,85.6667351723 -26.2989938259,85.6667351723 -24.0131556988,85.6667351723 -21.7273175716,85.6667351723 -19.4414871931,85.6667351723 " stroke-opacity="1.0"/>
  <polyline fill="none" fill-opacity="1.0" points="-19.4414871931,85.6667351723 -18.8077366352,83.3754885197 -18.1739938259,81.0842418671 -17.540243268,78.7929952145 -16.9064927101,76.5017330647 -16.2727421522,74.210486412 -15.6389915943,71.9192397594 -15.005248785,69.6279931068 -14.3714982271,67.3367464542 " stroke-opacity="1.0"/>
  <polyline fill="none" fill-opacity="1.0" points="-14.3714982271,67.3367464542 -13.6853903532,64.852296114 -12.9992747307,62.3678612709 -12.3131668568,59.8834109306 -11.6270512342,57.3989605904 -10.9409433603,54.9145257473 -10.2548277378,52.430075407 -9.56871986389,49.9456250668 -8.88260424137,47.4611902237 -8.19649636745,44.9767398834 " stroke-opacity="1.0"/>
  <polyline fill="none" fill-opacity="1.0" points="-8.19649636745,44.9767398834 -7.55831360817,42.6840054989 -6.92013084888,40.3912866116 -6.2819480896,38.098552227 -5.64376533031,35.8058333397 -5.00558257103,33.5130989552 -4.36740756035,31.2203800678 -3.72922480106,28.9276456833 -3.09104204178,26.634926796 -2.45285928249,24.3421924114 -1.81467652321,22.0494735241 -1.17649376392,19.7567391396 " stroke-opacity="1.0"/>
  <polyline fill="none" fill-opacity="1.0" points="-1.17649376392,19.7567391396 -0.499413013458,17.3246538639 0.177675485611,14.8925685883 0.854756236076,12.4604910612 1.53183698654,10.0284057856 2.20892548561,7.59632825851 2.88600623608,5.16424298286 3.56308698654,2.73215770721 4.24017548561,0.300072431564 4.91725623608,-2.13200509548 5.59433698654,-4.56409037113 6.27142548561,-6.99616789818 6.94850623608,-9.42825317383 " stroke-opacity="1.0"/>
  <polyline fill="none" fill-opacity="1.0" points="6.94850623608,-9.42825317383 7.55207598209,-11.6103994846 8.15564572811,-13.7925380468 8.75921547413,-15.9746843576 9.36279296875,-18.1568229198 9.96636271477,-20.3389692307 10.5699324608,-22.5211155415 11.1735022068,-24.7032541037 " stroke-opacity="1.0"/>
  <polyline fill="none" fill-opacity="1.0" points="11.1735022068,-24.7032541037 11.8420749903,-27.1268236637 12.5106477737,-29.5503932238 13.1792128086,-31.9739627838 13.8477933407,-34.3975400925 14.5163583755,-36.8211096525 15.1849389076,-39.2446792126 15.8535039425,-41.6682487726 " stroke-opacity="1.0"/>
  <polyline fill="none" fill-opacity="1.0" points="15.8535039425,-41.6682487726 16.4621412754,-44.0200662613 17.0707786083,-46.37188375 17.6794159412,-48.7237012386 18.2880532742,-51.0755264759 18.8966906071,-53.4273400903 19.5053124428,-55.7791614532 20.1139497757,-58.1309789419 20.7225871086,-60.4827964306 21.3312244415,-62.8346139193 22.6903218031,-65.1864314079 22.6785051823,-67.5382566452 " stroke-opacity="1.0"/>
  <polyline fill="none" fill-opacity="1.0" points="22.6785051823,-67.5382566452 22.6903218031,-65.1864314079 24.0730524063,-62.8346139193 24.7053229809,-60.4827964306 25.3375935555,-58.1309789419 25.96986413,-55.7791614532 26.6021502018,-53.4273400903 27.2344207764,-51.0755264759 27.8666913509,-48.7237012386 28.4989619255,-46.37188375 29.1312325001,-44.0200662613 29.7635030746,-41.6682487726 " stroke-opacity="1.0"/>
  <polyline fill="none" fill-opacity="1.0" points="29.7635030746,-41.6682487726 30.3972458839,-39.3607532978 31.0310041904,-37.0532500744 31.6647624969,-34.745746851 32.2985053062,-32.4382513762 32.9322481155,-30.1307559013 33.566006422,-27.8232526779 34.1997647285,-25.5157494545 34.8335075378,-23.2082539797 " stroke-opacity="1.0"/>
  <polyline fill="none" fill-opacity="1.0" points="34.8335075378,-23.2082539797 35.4780828953,-20.8465880156 36.1226737499,-18.4849220514 36.7672646046,-16.1232560873 37.411839962,-13.7615901232 38.0564308167,-11.399924159 38.7010061741,-9.03825044632 39.3455815315,-6.67658448219 39.9901723862,-4.31491851807 40.6347632408,-1.95325255394 41.2793385983,0.408413410187 41.9239139557,2.77007937431 42.5685048103,5.13174533844 " stroke-opacity="1.0"/>
  <polyline fill="none" fill-opacity="1.0" points="42.5685048103,5.13174533844 43.2401692867,7.58730113506 43.9118337631,10.0428569317 44.5834982395,12.4984127283 45.2551627159,14.9539685249 45.9268426895,17.409516573 46.5985071659,19.8650801182 47.2701716423,22.3206281662 47.9418361187,24.7761762142 48.6135005951,27.2317397594 " stroke-opacity="1.0"/>
  <polyline fill="none" fill-opacity="1.0" points="48.6135005951,27.2317397594 49.2449343204,29.5531749725 49.8763525486,31.8745946884 50.507786274,34.1960299015 51.1392199993,36.5174496174 51.7706537247,38.8388848305 52.4020719528,41.1603045464 53.0335056782,43.4817397594 " stroke-opacity="1.0"/>
  <polyline fill="none" fill-opacity="1.0" points="53.0335056782,43.4817397594 53.7071382999,45.9458267689 54.3807864189,48.4099292755 55.0544190407,50.8740162849 55.7280516624,53.3381032944 56.4016842842,55.8021903038 57.0753324032,58.2662928104 57.7489650249,60.7303798199 58.4225976467,63.1944668293 59.0962302685,65.6585538387 59.7698783875,68.1226563454 60.4435110092,70.5867433548 " stroke-opacity="1.0"/>
  <polyline fill="none" fill-opacity="1.0" points="60.4435110092,70.5867433548 61.0377979279,72.7503085136 61.6320848465,74.9138891697 62.2263717651,77.0774543285 62.8206431866,79.2410349846 63.4149301052,81.4046001434 64.0092170238,83.5681807995 64.6035039425,85.7317459583 " stroke-opacity="1.0"/>
  <polyline fill="none" fill-opacity="1.0" points="64.6035039425,85.7317459583 66.8655073643,85.7317459583 69.1274952888,85.7317459583 71.3894987106,85.7317459583 73.6514866352,85.7317459583 75.913490057,85.7317459583 " stroke-opacity="1.0"/>
  <polyline fill="none" fill-opacity="1.0" points="75.913490057,85.7317459583 78.3834969997,85.7317459583 80.8534884453,85.7317459583 83.323495388,85.7317459583 85.7934868336,85.7317459583 88.2634937763,85.7317459583 " stroke-opacity="1.0"/>
  <polyline fill="none" fill-opacity="1.0" points="88.2634937763,85.7317459583 88.9655017853,83.2747411728 89.6675097942,80.8177363873 90.369502306,78.3607470989 91.0715103149,75.9037423134 91.7735183239,73.4467375278 " stroke-opacity="1.0"/>
  <polyline fill="none" fill-opacity="1.0" points="91.7735183239,73.4467375278 92.423517704,71.1847341061 93.0735170841,68.9227461815 93.7235164642,66.6607427597 94.3735158443,64.3987548351 95.0235152245,62.1367514133 " stroke-opacity="1.0"/>
  <polyline fill="none" fill-opacity="1.0" points="95.0235152245,62.1367514133 95.630184412,60.0242495537 96.2368381023,57.911747694 96.8435072899,55.7992458344 97.4501764774,53.6867594719 98.0568301678,51.5742576122 98.6634993553,49.4617557526 " stroke-opacity="1.0"/>
  <polyline fill="none" fill-opacity="1.0" points="98.6634993553,49.4617557526 99.2918336391,47.2950911522 99.920167923,45.1284265518 100.548502207,42.9617464542 101.176836491,40.7950818539 102.524582148,38.6982786655 102.433505058,36.4617526531 " stroke-opacity="1.0"/>
  <polyline fill="none" fill-opacity="1.0" points="102.433505058,36.4617526531 102.524582148,38.6982786655 104.117090702,41.0499179363 105.05358696,43.3046531677 106.055419445,45.5325937271 107.123053074,47.7304697037 108.255867958,49.8934149742 109.455661774,52.0215070248 110.72193861,54.1107785702 112.053505182,56.1567354202 " stroke-opacity="1.0"/>
  <polyline fill="none" fill-opacity="1.0" points="112.053505182,56.1567354202 113.530389071,58.2821929455 115.076235533,60.3572690487 116.6903162,62.3790037632 118.372770548,64.3452584743 120.122327805,66.2520039082 121.937856674,68.0953657627 123.81850481,69.8717486858 " stroke-opacity="1.0"/>
  <polyline fill="none" fill-opacity="1.0" points="123.81850481,69.8717486858 125.639054775,71.4595925808 127.513999939,72.9823482037 129.44101572,74.4383883476 131.417870522,75.8264267445 133.441697359,77.1448516846 135.509985685,78.3925938606 137.619698048,79.5684289932 139.768401384,80.6717061996 141.953507662,81.7017591 " stroke-opacity="1.0"/>
  <polyline fill="none" fill-opacity="1.0" points="141.953507662,81.7017591 144.020819664,82.6108562946 146.11508131,83.4568023682 148.233828545,84.2404806614 150.374333858,84.9627435207 152.533590794,85.6244432926 154.710576534,86.2270522118 156.903493404,86.7717480659 " stroke-opacity="1.0"/>
  <polyline fill="none" fill-opacity="1.0" points="156.903493404,86.7717480659 159.305746555,87.3004198074 161.724054813,87.7588272095 164.154512882,88.1487214565 166.593277454,88.4721946716 169.041216373,88.7318968773 171.494734287,88.9299046993 173.950855732,89.0684807301 176.410882473,89.1500425339 178.873512745,89.1767597198 " stroke-opacity="1.0"/>
  <polyline fill="none" fill-opacity="1.0" points="178.873512745,89.1767597198 181.121785641,89.1543197632 183.368167877,89.0854036808 185.61157465,88.9673924446 187.853400707,88.7972486019 190.089740753,88.5719192028 192.318766117,88.2880103588 194.538493156,87.9417407513 " stroke-opacity="1.0"/>
  <polyline fill="none" fill-opacity="1.0" points="194.538493156,87.9417407513 196.999976635,87.5020539761 199.447171688,86.9915449619 201.877195835,86.4075171947 204.286949635,85.7474756241 206.673116684,85.0090956688 209.03321743,84.1899907589 211.364586353,83.287820816 213.660962582,82.302120924 215.918533802,81.2319302559 218.133487701,80.0767529011 " stroke-opacity="1.0"/>
  <polyline fill="none" fill-opacity="1.0" points="218.133487701,80.0767529011 220.173416138,78.9153301716 222.170510292,77.6829767227 224.121329784,76.379057169 226.022651196,75.0034320354 227.870569229,73.5569536686 229.661736488,72.0408928394 231.393487453,70.4567372799 " stroke-opacity="1.0"/>
  <polyline fill="none" fill-opacity="1.0" points="231.393487453,70.4567372799 233.098056316,68.784712553 234.736824036,67.0482194424 236.308829784,65.2510392666 237.813670635,63.3972942829 239.251594543,61.491137743 240.623500347,59.5367538929 " stroke-opacity="1.0"/>
  <polyline fill="none" fill-opacity="1.0" points="240.623500347,59.5367538929 241.781544685,57.779943943 242.885906696,55.9885287285 243.93764019,54.1658246517 244.938046932,52.3144972324 245.888490677,50.4367470741 " stroke-opacity="1.0"/>
  <polyline fill="none" fill-opacity="1.0" points="245.888490677,50.4367470741 246.971931458,48.1726205349 247.979373932,45.8725869656 248.912770748,43.5421478748 249.774973392,41.1842477322 250.568492413,38.8017380238 " stroke-opacity="1.0"/>
  <polyline fill="none" fill-opacity="1.0" points="250.568492413,38.8017380238 251.321718693,36.3729071617 252.013266087,33.9256036282 252.641987801,31.461315155 253.20707798,28.9815294743 253.707761765,26.4878118038 254.143512249,23.9817428589 " stroke-opacity="1.0"/>
  <polyline fill="none" fill-opacity="1.0" points="254.143512249,23.9817428589 251.595523357,23.6567354202 249.047503471,23.3317434788 246.49951458,23.0067360401 243.951494694,22.6817440987 241.403505802,22.35673666 " stroke-opacity="1.0"/>
  <polyline fill="none" fill-opacity="1.0" points="241.403505802,22.35673666 239.310514927,22.0967400074 237.217493057,21.8367433548 235.124502182,21.576731205 233.031480312,21.3167345524 230.938489437,21.0567378998 " stroke-opacity="1.0"/>
</svg>
